<?xml version="1.0" encoding="utf-8"?>
<svg xmlns="http://www.w3.org/2000/svg" viewBox="0 0 32 32">
  <path d="M 22.835 29.988 Q 18.887 29.988 16.829 27.538 Q 14.771 25.088 14.771 20.776 Q 14.771 16.436 16.829 13.972 Q 18.887 11.508 22.835 11.508 Q 26.755 11.508 28.827 13.972 Q 30.899 16.436 30.899 20.776 Q 30.899 25.088 28.827 27.538 Q 26.755 29.988 22.835 29.988 Z M 22.835 26.292 Q 24.571 26.292 25.341 24.766 Q 26.111 23.24 26.111 20.776 Q 26.111 18.312 25.341 16.828 Q 24.571 15.344 22.835 15.344 Q 21.127 15.344 20.343 16.828 Q 19.559 18.312 19.559 20.776 Q 19.559 23.24 20.343 24.766 Q 21.127 26.292 22.835 26.292 Z" style="fill: rgb(255, 255, 255); paint-order: fill; stroke: rgb(0, 0, 0); text-wrap-mode: nowrap;"/>
</svg>