<?xml version="1.0" encoding="utf-8"?>
<svg xmlns="http://www.w3.org/2000/svg" viewBox="0 0 32 32">
  <path d="M 15.342 29.543 L 15.342 26.659 L 19.43 23.215 Q 20.914 21.955 21.67 21.073 Q 22.426 20.191 22.692 19.491 Q 22.958 18.791 22.958 18.147 Q 22.958 16.747 22.132 16.061 Q 21.306 15.375 19.766 15.375 Q 18.814 15.375 17.946 15.627 Q 17.078 15.879 16.322 16.355 L 15.006 12.911 Q 16.21 12.155 17.764 11.819 Q 19.318 11.483 20.774 11.483 Q 23.378 11.483 24.974 12.337 Q 26.57 13.191 27.298 14.591 Q 28.026 15.991 28.026 17.643 Q 28.026 19.099 27.368 20.513 Q 26.71 21.927 25.03 23.355 L 22.146 25.819 L 22.146 25.931 L 28.166 25.931 L 28.166 29.543 Z" style="fill: rgb(255, 255, 255); paint-order: fill; stroke: rgb(0, 0, 0); text-wrap-mode: nowrap;"/>
</svg>