<?xml version="1.0" encoding="utf-8"?>
<svg xmlns="http://www.w3.org/2000/svg" viewBox="0 0 32 32">
  <path d="M 21.558 29.963 Q 19.766 29.963 18.016 29.515 Q 16.266 29.067 15.006 28.031 L 16.742 24.923 Q 17.47 25.483 18.814 25.833 Q 20.158 26.183 21.39 26.183 Q 23.014 26.183 23.686 25.623 Q 24.358 25.063 24.358 24.223 Q 24.358 23.411 23.742 22.865 Q 23.126 22.319 21.782 22.319 L 18.03 22.319 L 18.03 18.847 L 21.782 18.847 Q 23.014 18.847 23.476 18.259 Q 23.938 17.671 23.938 17.027 Q 23.938 16.131 23.238 15.753 Q 22.538 15.375 21.194 15.375 Q 20.102 15.375 18.926 15.599 Q 17.75 15.823 17.05 16.243 L 15.818 12.911 Q 16.882 12.267 18.534 11.875 Q 20.186 11.483 21.866 11.483 Q 23.938 11.483 25.52 12.099 Q 27.102 12.715 27.998 13.835 Q 28.894 14.955 28.894 16.495 Q 28.894 17.755 28.306 18.833 Q 27.718 19.911 26.738 20.387 Q 28.194 21.087 28.796 22.179 Q 29.398 23.271 29.398 24.503 Q 29.398 26.155 28.418 27.387 Q 27.438 28.619 25.674 29.291 Q 23.91 29.963 21.558 29.963 Z" style="fill: rgb(255, 255, 255); paint-order: fill; stroke: rgb(0, 0, 0); text-wrap-mode: nowrap;"/>
</svg>