<?xml version="1.0" encoding="utf-8"?>
<svg xmlns="http://www.w3.org/2000/svg" viewBox="0 0 32 32">
  <path d="M 22.118 29.963 Q 19.71 29.963 18.058 29.277 Q 16.406 28.591 15.566 27.751 L 17.582 24.615 Q 18.366 25.343 19.332 25.763 Q 20.298 26.183 21.642 26.183 Q 24.722 26.183 24.722 23.943 Q 24.722 22.851 23.966 22.249 Q 23.21 21.647 21.838 21.647 Q 21.138 21.647 20.452 21.815 Q 19.766 21.983 19.206 22.291 L 16.518 20.191 L 16.518 11.763 L 28.166 11.763 L 28.166 15.263 L 20.578 15.263 L 20.578 18.315 Q 21.11 18.175 21.796 18.063 Q 22.482 17.951 23.322 17.951 Q 26.458 17.951 27.97 19.519 Q 29.482 21.087 29.482 23.635 Q 29.482 25.427 28.698 26.869 Q 27.914 28.311 26.29 29.137 Q 24.666 29.963 22.118 29.963 Z" style="fill: rgb(255, 255, 255); paint-order: fill; stroke: rgb(0, 0, 0); text-wrap-mode: nowrap;"/>
</svg>