<?xml version="1.0" encoding="utf-8"?>
<svg xmlns="http://www.w3.org/2000/svg" viewBox="0 0 32 32">
  <path d="M 22.93 29.963 Q 19.29 29.963 17.428 27.793 Q 15.566 25.623 15.566 21.059 Q 15.566 16.355 17.498 13.905 Q 19.43 11.455 23.042 11.455 Q 24.778 11.455 26.248 11.917 Q 27.718 12.379 28.558 12.883 L 27.494 16.047 Q 26.738 15.711 25.912 15.473 Q 25.086 15.235 24.078 15.235 Q 22.258 15.235 21.278 16.201 Q 20.298 17.167 20.298 19.239 Q 20.858 18.819 21.824 18.511 Q 22.79 18.203 23.994 18.203 Q 26.542 18.203 27.914 19.687 Q 29.286 21.171 29.286 23.915 Q 29.286 25.595 28.684 26.967 Q 28.082 28.339 26.696 29.151 Q 25.31 29.963 22.93 29.963 Z M 22.622 26.183 Q 23.602 26.183 24.064 25.567 Q 24.526 24.951 24.526 23.999 Q 24.526 22.991 24.036 22.417 Q 23.546 21.843 22.65 21.843 Q 22.118 21.843 21.502 22.067 Q 20.886 22.291 20.522 22.683 L 20.522 23.663 Q 20.522 25.035 21.138 25.609 Q 21.754 26.183 22.622 26.183 Z" style="fill: rgb(255, 255, 255); paint-order: fill; stroke: rgb(0, 0, 0); text-wrap-mode: nowrap;"/>
</svg>