<?xml version="1.0" encoding="utf-8"?>
<svg xmlns="http://www.w3.org/2000/svg" viewBox="0 0 32 32">
  <path d="M 22.622 29.963 Q 19.094 29.963 17.33 28.451 Q 15.566 26.939 15.566 24.587 Q 15.566 22.991 16.28 21.955 Q 16.994 20.919 18.114 20.387 Q 17.358 19.827 16.798 18.903 Q 16.238 17.979 16.238 16.635 Q 16.238 15.123 17.022 13.961 Q 17.806 12.799 19.262 12.141 Q 20.718 11.483 22.734 11.483 Q 25.758 11.483 27.438 12.939 Q 29.118 14.395 29.118 16.691 Q 29.118 17.979 28.586 18.903 Q 28.054 19.827 27.158 20.387 Q 28.446 20.891 29.174 21.941 Q 29.902 22.991 29.902 24.531 Q 29.902 26.939 28.012 28.451 Q 26.122 29.963 22.622 29.963 Z M 22.51 18.875 Q 23.49 18.651 23.938 18.063 Q 24.386 17.475 24.386 16.719 Q 24.386 15.963 23.952 15.501 Q 23.518 15.039 22.678 15.039 Q 21.838 15.039 21.404 15.501 Q 20.97 15.963 20.97 16.691 Q 20.97 17.503 21.432 18.049 Q 21.894 18.595 22.51 18.875 Z M 22.734 26.323 Q 23.854 26.323 24.456 25.763 Q 25.058 25.203 25.058 24.419 Q 25.058 23.551 24.428 22.949 Q 23.798 22.347 22.958 22.067 Q 21.754 22.347 21.082 22.963 Q 20.41 23.579 20.41 24.419 Q 20.41 25.203 21.026 25.763 Q 21.642 26.323 22.734 26.323 Z" style="fill: rgb(255, 255, 255); paint-order: fill; stroke: rgb(0, 0, 0); text-wrap-mode: nowrap;"/>
</svg>