<?xml version="1.0" encoding="utf-8"?>
<svg xmlns="http://www.w3.org/2000/svg" viewBox="0 0 32 32">
  <path d="M 21.474 29.991 Q 19.626 29.991 18.352 29.473 Q 17.078 28.955 16.238 28.367 L 17.974 25.119 Q 18.59 25.567 19.388 25.889 Q 20.186 26.211 21.222 26.211 Q 23.042 26.211 23.868 25.147 Q 24.694 24.083 24.694 22.207 Q 24.218 22.655 23.364 22.949 Q 22.51 23.243 21.306 23.243 Q 18.618 23.243 17.092 21.759 Q 15.566 20.275 15.566 17.559 Q 15.566 15.851 16.238 14.479 Q 16.91 13.107 18.352 12.295 Q 19.794 11.483 22.118 11.483 Q 25.702 11.483 27.564 13.611 Q 29.426 15.739 29.426 20.163 Q 29.426 24.811 27.368 27.401 Q 25.31 29.991 21.474 29.991 Z M 22.51 19.603 Q 23.714 19.603 24.47 18.763 L 24.47 17.783 Q 24.47 16.411 23.854 15.837 Q 23.238 15.263 22.37 15.263 Q 21.418 15.263 20.872 15.865 Q 20.326 16.467 20.326 17.447 Q 20.326 18.455 20.9 19.029 Q 21.474 19.603 22.51 19.603 Z" style="fill: rgb(255, 255, 255); paint-order: fill; stroke: rgb(0, 0, 0); text-wrap-mode: nowrap;"/>
</svg>