<?xml version="1.0" encoding="utf-8"?>
<svg xmlns="http://www.w3.org/2000/svg" viewBox="0 0 32 32">
  <path d="M 16.005 27.471 Q 14.605 27.471 13.345 26.911 Q 12.085 26.351 11.301 25.119 Q 10.517 23.887 10.517 21.871 Q 10.517 19.855 11.287 18.623 Q 12.057 17.391 13.303 16.831 Q 14.549 16.271 15.921 16.271 Q 17.461 16.271 18.637 16.831 Q 19.813 17.391 20.345 18.147 Q 20.905 17.391 22.067 16.831 Q 23.229 16.271 24.769 16.271 Q 26.169 16.271 27.401 16.831 Q 28.633 17.391 29.403 18.623 Q 30.173 19.855 30.173 21.871 Q 30.173 23.887 29.389 25.119 Q 28.605 26.351 27.359 26.911 Q 26.113 27.471 24.685 27.471 Q 23.229 27.471 22.067 26.939 Q 20.905 26.407 20.345 25.511 Q 19.813 26.407 18.651 26.939 Q 17.489 27.471 16.005 27.471 Z M 16.257 23.579 Q 17.013 23.579 17.615 23.131 Q 18.217 22.683 18.413 21.703 Q 18.133 21.087 17.587 20.625 Q 17.041 20.163 16.229 20.163 Q 15.501 20.163 15.039 20.597 Q 14.577 21.031 14.577 21.871 Q 14.577 22.711 15.039 23.145 Q 15.501 23.579 16.257 23.579 Z M 24.433 23.579 Q 25.189 23.579 25.651 23.145 Q 26.113 22.711 26.113 21.871 Q 26.113 21.031 25.651 20.597 Q 25.189 20.163 24.461 20.163 Q 23.649 20.163 23.103 20.625 Q 22.557 21.087 22.277 21.703 Q 22.501 22.683 23.089 23.131 Q 23.677 23.579 24.433 23.579 Z" style="fill: rgb(255, 255, 255); paint-order: fill; stroke: rgb(0, 0, 0); text-wrap-mode: nowrap;"/>
</svg>