<?xml version="1.0" encoding="UTF-8" standalone="no"?>
<!DOCTYPE svg PUBLIC "-//W3C//DTD SVG 1.1//EN" "http://www.w3.org/Graphics/SVG/1.1/DTD/svg11.dtd">
<svg width="100%" height="100%" viewBox="0 0 70 64" version="1.1" xmlns="http://www.w3.org/2000/svg" xmlns:xlink="http://www.w3.org/1999/xlink" xml:space="preserve" xmlns:serif="http://www.serif.com/" style="fill-rule:evenodd;clip-rule:evenodd;stroke-linejoin:round;stroke-miterlimit:2;">
    <g transform="matrix(1.07434,0,0,1.07434,-2.6192,-2.37882)">
        <path d="M3.017,61.786L3.017,2.214L56.983,2.214L67.451,32L56.983,61.786L3.017,61.786Z" style="fill:white;"/>
    </g>
    <g transform="matrix(0.947644,0,0,1,0,0)">
        <rect x="0" y="0" width="73.556" height="64" style="fill:none;"/>
        <g transform="matrix(1.05525,0,0,1,-7.49799e-15,0)">
            <path d="M3.017,61.786L3.017,2.214L56.983,2.214L67.451,32L56.983,61.786L3.017,61.786Z" style="fill:url(#_Linear1);"/>
        </g>
        <g transform="matrix(4.92911,0,0,4.625,-56.9205,-92.1553)">
            <g transform="matrix(12,0,0,12,12.4923,31.1804)">
                <path d="M0.842,-0.239L0.84,-0.15L0.84,-0.121L0.841,-0.051C0.841,-0.023 0.834,-0.004 0.82,0.007C0.805,0.018 0.764,0.024 0.697,0.025C0.686,0.025 0.68,0.024 0.678,0.022C0.676,0.021 0.674,0.015 0.672,0.005C0.669,-0.01 0.663,-0.022 0.655,-0.033C0.684,-0.03 0.713,-0.029 0.741,-0.029C0.767,-0.029 0.78,-0.041 0.78,-0.065L0.78,-0.193L0.52,-0.193L0.52,-0.049L0.522,0.065C0.522,0.07 0.519,0.072 0.514,0.072L0.466,0.072C0.461,0.072 0.458,0.07 0.458,0.065L0.46,-0.049L0.46,-0.193L0.22,-0.193L0.22,-0.074L0.222,0.021C0.222,0.027 0.219,0.029 0.214,0.029L0.166,0.029C0.16,0.029 0.158,0.027 0.158,0.021L0.16,-0.076L0.16,-0.156L0.158,-0.239C0.158,-0.244 0.16,-0.247 0.166,-0.247L0.309,-0.245L0.46,-0.245L0.46,-0.336L0.403,-0.336L0.276,-0.333C0.271,-0.333 0.269,-0.336 0.269,-0.341L0.271,-0.409L0.271,-0.468L0.269,-0.535C0.269,-0.54 0.271,-0.543 0.276,-0.543L0.403,-0.541L0.59,-0.541L0.716,-0.543C0.722,-0.543 0.724,-0.54 0.724,-0.535L0.722,-0.468L0.722,-0.409L0.724,-0.341C0.724,-0.336 0.722,-0.333 0.716,-0.333L0.59,-0.336L0.52,-0.336L0.52,-0.245L0.691,-0.245L0.834,-0.247C0.839,-0.247 0.842,-0.244 0.842,-0.239ZM0.666,-0.385L0.666,-0.492L0.327,-0.492L0.327,-0.385L0.666,-0.385ZM0.906,-0.481C0.906,-0.476 0.903,-0.473 0.898,-0.473L0.853,-0.473C0.847,-0.473 0.845,-0.476 0.845,-0.481L0.845,-0.619L0.153,-0.619L0.153,-0.481C0.153,-0.476 0.15,-0.473 0.145,-0.473L0.1,-0.473C0.095,-0.473 0.092,-0.476 0.092,-0.481L0.094,-0.584L0.094,-0.614L0.092,-0.664C0.092,-0.669 0.094,-0.672 0.1,-0.672L0.238,-0.67L0.461,-0.67L0.461,-0.726C0.461,-0.771 0.458,-0.807 0.452,-0.834C0.477,-0.833 0.5,-0.831 0.52,-0.828C0.528,-0.827 0.532,-0.824 0.532,-0.82C0.532,-0.817 0.53,-0.81 0.526,-0.801C0.523,-0.794 0.521,-0.769 0.521,-0.726L0.521,-0.67L0.621,-0.67C0.639,-0.699 0.657,-0.73 0.674,-0.764C0.681,-0.779 0.685,-0.794 0.688,-0.809C0.709,-0.805 0.729,-0.799 0.746,-0.794C0.754,-0.791 0.758,-0.787 0.758,-0.782C0.758,-0.777 0.755,-0.773 0.749,-0.769C0.744,-0.766 0.739,-0.759 0.732,-0.748C0.716,-0.722 0.7,-0.696 0.682,-0.67L0.76,-0.67L0.898,-0.672C0.903,-0.672 0.906,-0.669 0.906,-0.664L0.904,-0.62L0.904,-0.584L0.906,-0.481ZM0.337,-0.713C0.338,-0.711 0.339,-0.709 0.339,-0.708C0.339,-0.707 0.335,-0.704 0.329,-0.7L0.3,-0.684C0.295,-0.681 0.292,-0.68 0.29,-0.68C0.288,-0.68 0.286,-0.681 0.285,-0.685C0.267,-0.721 0.247,-0.752 0.224,-0.779C0.221,-0.782 0.22,-0.784 0.22,-0.785C0.22,-0.786 0.223,-0.789 0.23,-0.792L0.26,-0.806C0.264,-0.808 0.266,-0.809 0.268,-0.809C0.27,-0.809 0.272,-0.807 0.275,-0.804C0.292,-0.784 0.313,-0.754 0.337,-0.713Z" style="fill:white;fill-rule:nonzero;"/>
            </g>
        </g>
    </g>
    <defs>
        <linearGradient id="_Linear1" x1="0" y1="0" x2="1" y2="0" gradientUnits="userSpaceOnUse" gradientTransform="matrix(63.81,23.5925,-21.8121,58.9946,3.01653,10.1834)"><stop offset="0" style="stop-color:white;stop-opacity:1"/><stop offset="0.09" style="stop-color:rgb(255,60,37);stop-opacity:1"/><stop offset="0.93" style="stop-color:rgb(255,33,7);stop-opacity:1"/><stop offset="1" style="stop-color:rgb(120,13,0);stop-opacity:1"/></linearGradient>
    </defs>
</svg>
