<?xml version="1.0" encoding="UTF-8" standalone="no"?>
<!DOCTYPE svg PUBLIC "-//W3C//DTD SVG 1.1//EN" "http://www.w3.org/Graphics/SVG/1.1/DTD/svg11.dtd">
<svg width="100%" height="100%" viewBox="0 0 70 64" version="1.1" xmlns="http://www.w3.org/2000/svg" xmlns:xlink="http://www.w3.org/1999/xlink" xml:space="preserve" xmlns:serif="http://www.serif.com/" style="fill-rule:evenodd;clip-rule:evenodd;stroke-linejoin:round;stroke-miterlimit:2;">
    <g transform="matrix(1.07434,0,0,1.07434,-2.6192,-2.37882)">
        <path d="M3.017,61.786L3.017,2.214L56.983,2.214L67.451,32L56.983,61.786L3.017,61.786Z" style="fill:white;"/>
    </g>
    <g transform="matrix(0.947644,0,0,1,0,0)">
        <rect x="0" y="0" width="73.556" height="64" style="fill:none;"/>
        <g transform="matrix(1.05525,0,0,1,0,0)">
            <path d="M3.017,61.786L3.017,2.214L56.983,2.214L67.451,32L56.983,61.786L3.017,61.786Z" style="fill:url(#_Linear1);"/>
        </g>
        <g transform="matrix(4.92911,0,0,4.625,-56.9205,-92.1553)">
            <g transform="matrix(12,0,0,12,12.4923,31.1804)">
                <path d="M0.877,-0.262C0.877,-0.262 0.875,-0.256 0.872,-0.244C0.868,-0.229 0.866,-0.198 0.866,-0.15L0.866,-0.032L0.868,0.053C0.868,0.058 0.865,0.061 0.861,0.061L0.813,0.061C0.807,0.061 0.805,0.058 0.805,0.053L0.805,-0.002L0.196,-0.002L0.196,0.056C0.196,0.061 0.194,0.064 0.188,0.064L0.141,0.064C0.135,0.064 0.133,0.061 0.133,0.056L0.135,-0.026L0.135,-0.146C0.135,-0.202 0.132,-0.243 0.128,-0.27C0.154,-0.269 0.176,-0.267 0.195,-0.264C0.204,-0.263 0.208,-0.26 0.208,-0.255C0.208,-0.253 0.207,-0.25 0.206,-0.247C0.204,-0.242 0.203,-0.239 0.203,-0.238C0.199,-0.225 0.196,-0.195 0.196,-0.148L0.196,-0.059L0.46,-0.059L0.46,-0.399L0.225,-0.399L0.225,-0.349C0.225,-0.344 0.222,-0.341 0.217,-0.341L0.17,-0.341C0.165,-0.341 0.162,-0.344 0.162,-0.349L0.164,-0.438L0.164,-0.574C0.164,-0.63 0.162,-0.672 0.157,-0.699C0.183,-0.698 0.205,-0.696 0.224,-0.693C0.231,-0.692 0.235,-0.689 0.235,-0.684C0.235,-0.679 0.234,-0.673 0.231,-0.666C0.227,-0.655 0.225,-0.625 0.225,-0.575L0.225,-0.455L0.46,-0.455L0.46,-0.698C0.46,-0.757 0.458,-0.799 0.453,-0.826C0.479,-0.825 0.502,-0.823 0.522,-0.82C0.53,-0.819 0.534,-0.816 0.534,-0.812C0.534,-0.81 0.534,-0.807 0.532,-0.804C0.531,-0.799 0.53,-0.796 0.529,-0.794C0.525,-0.779 0.523,-0.748 0.523,-0.699L0.523,-0.455L0.777,-0.455L0.777,-0.58C0.777,-0.636 0.775,-0.678 0.77,-0.705C0.794,-0.704 0.816,-0.702 0.837,-0.699C0.845,-0.698 0.849,-0.695 0.849,-0.69C0.849,-0.689 0.847,-0.683 0.844,-0.673C0.84,-0.657 0.838,-0.625 0.838,-0.578L0.838,-0.443L0.84,-0.351C0.84,-0.346 0.837,-0.343 0.832,-0.343L0.785,-0.343C0.779,-0.343 0.777,-0.346 0.777,-0.351L0.777,-0.399L0.523,-0.399L0.523,-0.059L0.805,-0.059L0.805,-0.152C0.805,-0.208 0.802,-0.249 0.798,-0.276C0.824,-0.275 0.846,-0.273 0.865,-0.27C0.873,-0.269 0.877,-0.266 0.877,-0.262Z" style="fill:white;fill-rule:nonzero;"/>
            </g>
        </g>
    </g>
    <defs>
        <linearGradient id="_Linear1" x1="0" y1="0" x2="1" y2="0" gradientUnits="userSpaceOnUse" gradientTransform="matrix(62.3369,43.6591,-40.3644,57.6327,5.11368,5.33401)"><stop offset="0" style="stop-color:rgb(170,229,255);stop-opacity:1"/><stop offset="0.09" style="stop-color:rgb(85,129,255);stop-opacity:1"/><stop offset="0.71" style="stop-color:rgb(42,94,243);stop-opacity:1"/><stop offset="1" style="stop-color:rgb(0,29,111);stop-opacity:1"/></linearGradient>
    </defs>
</svg>
