<?xml version="1.0" encoding="UTF-8" standalone="no"?>
<!DOCTYPE svg PUBLIC "-//W3C//DTD SVG 1.1//EN" "http://www.w3.org/Graphics/SVG/1.1/DTD/svg11.dtd">
<svg viewBox="0 0 39 39" version="1.1" xmlns="http://www.w3.org/2000/svg" xmlns:xlink="http://www.w3.org/1999/xlink" xml:space="preserve" xmlns:serif="http://www.serif.com/" style="fill-rule:evenodd;clip-rule:evenodd;stroke-linecap:round;stroke-linejoin:round;stroke-miterlimit:1.5;">
    <g id="rect" transform="matrix(0.947179,0,0,0.947179,0,0)">
        <rect x="0" y="0" width="40.774" height="40.774" style="fill:none;"/>
        <g transform="matrix(0.946717,0,0,0.946717,-59.3707,-275.047)">
            <path d="M87.544,301.226L87.544,294.361L80.949,294.361L80.949,301.226L73.68,301.226L73.68,308.764L66.546,308.764L66.546,315.359L73.68,315.359L73.68,322.83L80.949,322.83L80.949,329.762L87.544,329.762L87.544,322.83L95.284,322.83L95.284,315.359L101.947,315.359L101.947,308.764L95.284,308.764L95.284,301.226L87.544,301.226Z" style="fill:none;stroke:rgb(3,0,0);stroke-width:7.52px;"/>
        </g>
        <g transform="matrix(0.946717,0,0,0.946717,-59.3707,-275.047)">
            <path d="M87.544,301.226L87.544,294.361L80.949,294.361L80.949,301.226L73.68,301.226L73.68,308.764L66.546,308.764L66.546,315.359L73.68,315.359L73.68,322.83L80.949,322.83L80.949,329.762L87.544,329.762L87.544,322.83L95.284,322.83L95.284,315.359L101.947,315.359L101.947,308.764L95.284,308.764L95.284,301.226L87.544,301.226Z" style="stroke:rgb(255,164,164);stroke-width:2.79px;stroke-linejoin:miter;stroke-miterlimit:1;"/>
        </g>
        <g transform="matrix(1.05577,0,0,1.05577,-68.5577,-310.214)">
            <g transform="matrix(0.216016,0.216016,-0.32465,0.32465,154.99,196.933)">
                <path d="M104.572,274.301C105.844,272.254 107.773,270.763 109.97,270.006C111.469,272.578 111.846,275.776 110.729,278.781C109.663,281.651 107.449,283.763 104.8,284.792C104.774,284.839 104.748,284.885 104.721,284.93C104.671,284.913 104.621,284.896 104.572,284.878C104.522,284.896 104.473,284.913 104.423,284.93C104.396,284.885 104.37,284.839 104.344,284.792C101.695,283.763 99.481,281.651 98.414,278.781C97.297,275.776 97.675,272.578 99.173,270.006C101.371,270.763 103.3,272.254 104.572,274.301Z" style="fill:rgb(255,173,173);"/>
            </g>
            <g transform="matrix(-0.216016,0.216016,0.32465,0.32465,13.5033,196.933)">
                <path d="M104.572,274.301C105.844,272.254 107.773,270.763 109.97,270.006C111.469,272.578 111.846,275.776 110.729,278.781C109.663,281.651 107.449,283.763 104.8,284.792C104.774,284.839 104.748,284.885 104.721,284.93C104.671,284.913 104.621,284.896 104.572,284.878C104.522,284.896 104.473,284.913 104.423,284.93C104.396,284.885 104.37,284.839 104.344,284.792C101.695,283.763 99.481,281.651 98.414,278.781C97.297,275.776 97.675,272.578 99.173,270.006C101.371,270.763 103.3,272.254 104.572,274.301Z" style="fill:rgb(255,173,173);"/>
            </g>
            <g transform="matrix(0.216016,-0.216016,-0.32465,-0.32465,154.99,429.343)">
                <path d="M104.572,274.301C105.844,272.254 107.773,270.763 109.97,270.006C111.469,272.578 111.846,275.776 110.729,278.781C109.663,281.651 107.449,283.763 104.8,284.792C104.774,284.839 104.748,284.885 104.721,284.93C104.671,284.913 104.621,284.896 104.572,284.878C104.522,284.896 104.473,284.913 104.423,284.93C104.396,284.885 104.37,284.839 104.344,284.792C101.695,283.763 99.481,281.651 98.414,278.781C97.297,275.776 97.675,272.578 99.173,270.006C101.371,270.763 103.3,272.254 104.572,274.301Z" style="fill:rgb(255,173,173);"/>
            </g>
            <g transform="matrix(-0.216016,-0.216016,0.32465,-0.32465,13.5033,429.343)">
                <path d="M104.572,274.301C105.844,272.254 107.773,270.763 109.97,270.006C111.469,272.578 111.846,275.776 110.729,278.781C109.663,281.651 107.449,283.763 104.8,284.792C104.774,284.839 104.748,284.885 104.721,284.93C104.671,284.913 104.621,284.896 104.572,284.878C104.522,284.896 104.473,284.913 104.423,284.93C104.396,284.885 104.37,284.839 104.344,284.792C101.695,283.763 99.481,281.651 98.414,278.781C97.297,275.776 97.675,272.578 99.173,270.006C101.371,270.763 103.3,272.254 104.572,274.301Z" style="fill:rgb(255,173,173);"/>
            </g>
        </g>
    </g>
</svg>
