<?xml version="1.0" encoding="UTF-8" standalone="no"?>
<!DOCTYPE svg PUBLIC "-//W3C//DTD SVG 1.1//EN" "http://www.w3.org/Graphics/SVG/1.1/DTD/svg11.dtd">
<svg width="100%" height="100%" viewBox="0 0 64 64" version="1.1" xmlns="http://www.w3.org/2000/svg" xmlns:xlink="http://www.w3.org/1999/xlink" xml:space="preserve" xmlns:serif="http://www.serif.com/" style="fill-rule:evenodd;clip-rule:evenodd;stroke-linejoin:round;stroke-miterlimit:2;">
    <g transform="matrix(2.20934,0,0,2.20934,-243.469,-1825.77)">
        <path d="M127.791,834.049L136.184,834.049L131.987,840.871L136.184,847.693L127.791,847.693L124.684,852.742L121.578,847.693L113.184,847.693L117.381,840.871L113.184,834.049L121.578,834.049L124.684,829L127.791,834.049Z" style="fill:white;"/>
    </g>
    <g transform="matrix(2.20934,0,0,2.20934,-243.469,-1825.77)">
        <path d="M128.349,833.049L124.684,827.092L121.019,833.049C121.019,833.049 111.395,833.049 111.395,833.049L116.207,840.871C116.207,840.871 111.395,848.693 111.395,848.693L121.019,848.693C121.019,848.693 124.684,854.651 124.684,854.651L128.349,848.693C128.349,848.693 137.974,848.693 137.974,848.693L133.161,840.871C133.161,840.871 137.974,833.049 137.974,833.049L128.349,833.049ZM127.215,846.72L124.684,842.736L122.154,846.72L124.684,850.834L127.215,846.72ZM119.802,835.049L123.5,840.871L119.802,846.693L114.974,846.693C114.974,846.693 118.555,840.871 118.555,840.871L114.974,835.049L119.802,835.049ZM129.567,835.049L134.395,835.049C134.395,835.049 130.813,840.871 130.813,840.871L134.395,846.693L129.567,846.693L125.869,840.871L129.567,835.049ZM122.154,835.022L124.684,830.908C124.684,830.908 126.939,834.573 126.939,834.573L127.215,835.022L124.684,839.006L122.154,835.022Z"/>
    </g>
</svg>