<?xml version="1.0" encoding="UTF-8" standalone="no"?>
<!DOCTYPE svg PUBLIC "-//W3C//DTD SVG 1.1//EN" "http://www.w3.org/Graphics/SVG/1.1/DTD/svg11.dtd">
<svg width="100%" height="100%" viewBox="0 0 70 64" version="1.1" xmlns="http://www.w3.org/2000/svg" xmlns:xlink="http://www.w3.org/1999/xlink" xml:space="preserve" xmlns:serif="http://www.serif.com/" style="fill-rule:evenodd;clip-rule:evenodd;stroke-linejoin:round;stroke-miterlimit:2;">
    <g transform="matrix(1.07434,0,0,1.07434,-2.6192,-2.37882)">
        <path d="M3.017,61.786L3.017,2.214L56.983,2.214L67.451,32L56.983,61.786L3.017,61.786Z" style="fill:white;"/>
    </g>
    <g transform="matrix(0.947644,0,0,1,0,0)">
        <rect x="0" y="0" width="73.556" height="64" style="fill:none;"/>
        <g transform="matrix(1.05525,0,0,1,0,0)">
            <path d="M3.017,61.786L3.017,2.214L56.983,2.214L67.451,32L56.983,61.786L3.017,61.786Z" style="fill:url(#_Linear1);"/>
        </g>
        <g transform="matrix(4.92911,0,0,4.625,-56.9205,-92.1553)">
            <g transform="matrix(12,0,0,12,12.4923,31.1804)">
                <path d="M0.811,0.054C0.811,0.059 0.808,0.061 0.803,0.061L0.756,0.061C0.751,0.061 0.748,0.059 0.748,0.054L0.748,-0.002L0.253,-0.002L0.253,0.055C0.253,0.06 0.25,0.062 0.245,0.062L0.198,0.062C0.193,0.062 0.19,0.06 0.19,0.055L0.192,-0.262L0.192,-0.447L0.19,-0.686C0.19,-0.691 0.193,-0.694 0.198,-0.694L0.338,-0.692L0.397,-0.692C0.411,-0.722 0.424,-0.757 0.437,-0.798C0.441,-0.812 0.443,-0.826 0.444,-0.842C0.463,-0.839 0.485,-0.835 0.508,-0.83C0.516,-0.828 0.52,-0.824 0.52,-0.819C0.52,-0.816 0.518,-0.812 0.514,-0.808C0.507,-0.8 0.502,-0.791 0.499,-0.783C0.484,-0.744 0.472,-0.713 0.461,-0.692L0.663,-0.692L0.803,-0.694C0.808,-0.694 0.811,-0.691 0.811,-0.686L0.809,-0.47L0.809,-0.263L0.811,0.054ZM0.748,-0.059L0.748,-0.226L0.253,-0.226L0.253,-0.059L0.748,-0.059ZM0.748,-0.281L0.748,-0.431L0.253,-0.431L0.253,-0.281L0.748,-0.281ZM0.748,-0.486L0.748,-0.635L0.253,-0.635L0.253,-0.486L0.748,-0.486Z" style="fill:white;fill-rule:nonzero;"/>
            </g>
        </g>
    </g>
    <defs>
        <linearGradient id="_Linear1" x1="0" y1="0" x2="1" y2="0" gradientUnits="userSpaceOnUse" gradientTransform="matrix(62.9899,55.7472,-51.5402,58.2364,4.46069,6.0386)"><stop offset="0" style="stop-color:rgb(255,225,165);stop-opacity:1"/><stop offset="0.07" style="stop-color:rgb(203,133,23);stop-opacity:1"/><stop offset="0.21" style="stop-color:rgb(194,118,0);stop-opacity:1"/><stop offset="0.76" style="stop-color:rgb(249,157,0);stop-opacity:1"/><stop offset="1" style="stop-color:rgb(145,53,0);stop-opacity:1"/></linearGradient>
    </defs>
</svg>
