<?xml version="1.0" encoding="UTF-8" standalone="no"?>
<!DOCTYPE svg PUBLIC "-//W3C//DTD SVG 1.1//EN" "http://www.w3.org/Graphics/SVG/1.1/DTD/svg11.dtd">
<svg width="100%" height="100%" viewBox="0 0 70 64" version="1.1" xmlns="http://www.w3.org/2000/svg" xmlns:xlink="http://www.w3.org/1999/xlink" xml:space="preserve" xmlns:serif="http://www.serif.com/" style="fill-rule:evenodd;clip-rule:evenodd;stroke-linejoin:round;stroke-miterlimit:2;">
    <g transform="matrix(1.07434,0,0,1.07434,-2.6192,-2.37882)">
        <path d="M3.017,61.786L3.017,2.214L56.983,2.214L67.451,32L56.983,61.786L3.017,61.786Z" style="fill:white;"/>
    </g>
    <g transform="matrix(0.947644,0,0,1,0,0)">
        <rect x="0" y="0" width="73.556" height="64" style="fill:none;"/>
        <g transform="matrix(1.05525,0,0,1,0,0)">
            <path d="M3.017,61.786L3.017,2.214L56.983,2.214L67.451,32L56.983,61.786L3.017,61.786Z" style="fill:url(#_Linear1);"/>
        </g>
        <g transform="matrix(4.92911,0,0,4.625,-56.9205,-92.1553)">
            <g transform="matrix(12,0,0,12,12.4923,31.1804)">
                <path d="M0.971,-0.032C0.963,-0.024 0.956,-0.009 0.95,0.013C0.948,0.024 0.946,0.03 0.944,0.032C0.942,0.034 0.937,0.035 0.928,0.036C0.838,0.044 0.736,0.048 0.622,0.048C0.534,0.048 0.464,0.042 0.41,0.029C0.361,0.018 0.319,0.001 0.286,-0.023C0.234,-0.06 0.193,-0.105 0.164,-0.16C0.145,-0.083 0.12,-0.018 0.09,0.035C0.084,0.045 0.08,0.051 0.077,0.051C0.074,0.051 0.07,0.048 0.064,0.041C0.057,0.033 0.045,0.025 0.03,0.017C0.097,-0.084 0.132,-0.203 0.133,-0.34C0.133,-0.36 0.131,-0.375 0.128,-0.385C0.149,-0.384 0.169,-0.381 0.187,-0.376C0.197,-0.373 0.202,-0.369 0.202,-0.365C0.202,-0.363 0.2,-0.358 0.195,-0.351C0.192,-0.344 0.189,-0.334 0.188,-0.321C0.187,-0.295 0.183,-0.264 0.177,-0.227C0.203,-0.173 0.237,-0.129 0.277,-0.095L0.277,-0.444L0.192,-0.444L0.069,-0.442C0.065,-0.442 0.063,-0.445 0.063,-0.45L0.063,-0.492C0.063,-0.497 0.065,-0.5 0.069,-0.5L0.192,-0.498L0.273,-0.498L0.273,-0.628L0.218,-0.628L0.106,-0.627C0.101,-0.627 0.098,-0.629 0.098,-0.634L0.098,-0.676C0.098,-0.681 0.101,-0.684 0.106,-0.684L0.218,-0.682L0.273,-0.682L0.273,-0.698C0.273,-0.758 0.271,-0.802 0.266,-0.829C0.291,-0.828 0.312,-0.826 0.329,-0.823C0.337,-0.822 0.34,-0.819 0.34,-0.815C0.34,-0.814 0.339,-0.809 0.336,-0.798C0.333,-0.785 0.331,-0.755 0.331,-0.709L0.331,-0.682L0.361,-0.682L0.473,-0.684C0.479,-0.684 0.481,-0.681 0.481,-0.676L0.481,-0.634C0.481,-0.629 0.479,-0.627 0.473,-0.627L0.361,-0.628L0.331,-0.628L0.331,-0.498L0.375,-0.498L0.499,-0.5C0.504,-0.5 0.506,-0.497 0.506,-0.492L0.506,-0.45C0.506,-0.445 0.504,-0.442 0.499,-0.442L0.375,-0.444L0.334,-0.444L0.334,-0.297L0.416,-0.297L0.479,-0.299C0.485,-0.299 0.487,-0.296 0.487,-0.291L0.487,-0.25C0.487,-0.245 0.485,-0.242 0.479,-0.242L0.416,-0.244L0.334,-0.244L0.334,-0.057C0.395,-0.026 0.485,-0.01 0.605,-0.01C0.73,-0.01 0.852,-0.018 0.971,-0.032ZM0.937,-0.244C0.93,-0.187 0.915,-0.148 0.892,-0.129C0.869,-0.107 0.815,-0.096 0.729,-0.096C0.646,-0.096 0.595,-0.104 0.577,-0.12C0.568,-0.128 0.562,-0.137 0.559,-0.148C0.556,-0.159 0.555,-0.175 0.555,-0.197L0.555,-0.396L0.553,-0.49C0.553,-0.495 0.556,-0.498 0.561,-0.498L0.654,-0.496L0.821,-0.496L0.821,-0.708L0.65,-0.708L0.547,-0.706C0.542,-0.706 0.539,-0.709 0.539,-0.714L0.539,-0.755C0.539,-0.76 0.542,-0.763 0.547,-0.763L0.65,-0.761L0.774,-0.761L0.873,-0.763C0.879,-0.763 0.881,-0.76 0.881,-0.755L0.879,-0.661L0.879,-0.543L0.881,-0.449C0.881,-0.444 0.879,-0.441 0.873,-0.441L0.774,-0.443L0.614,-0.443L0.614,-0.221C0.614,-0.193 0.617,-0.176 0.623,-0.17C0.635,-0.159 0.671,-0.154 0.732,-0.154C0.796,-0.154 0.836,-0.161 0.852,-0.175C0.868,-0.189 0.876,-0.229 0.878,-0.293C0.889,-0.285 0.903,-0.277 0.919,-0.271C0.932,-0.266 0.938,-0.261 0.938,-0.255C0.938,-0.253 0.938,-0.249 0.937,-0.244Z" style="fill:white;fill-rule:nonzero;"/>
            </g>
        </g>
    </g>
    <defs>
        <linearGradient id="_Linear1" x1="0" y1="0" x2="1" y2="0" gradientUnits="userSpaceOnUse" gradientTransform="matrix(62.9899,55.7472,-51.5402,58.2364,4.46069,6.0386)"><stop offset="0" style="stop-color:rgb(165,255,176);stop-opacity:1"/><stop offset="0.03" style="stop-color:rgb(109,206,106);stop-opacity:1"/><stop offset="0.07" style="stop-color:rgb(63,166,47);stop-opacity:1"/><stop offset="0.21" style="stop-color:rgb(46,151,26);stop-opacity:1"/><stop offset="0.76" style="stop-color:rgb(31,126,12);stop-opacity:1"/><stop offset="1" style="stop-color:rgb(8,47,0);stop-opacity:1"/></linearGradient>
    </defs>
</svg>
